<?xml version="1.0" encoding="utf-8"?>
<!-- Generator: Adobe Illustrator 19.2.1, SVG Export Plug-In . SVG Version: 6.00 Build 0)  -->
<svg version="1.1" id="Capa_1" xmlns="http://www.w3.org/2000/svg" xmlns:xlink="http://www.w3.org/1999/xlink" x="0px" y="0px"
	 viewBox="0 0 512 512" style="enable-background:new 0 0 512 512;" xml:space="preserve">
<style type="text/css">
	.st0{fill:#FFFFFF;}
</style>
<g>
	<path class="st0" d="M256,0C141.2,0,47.9,93.4,47.9,208.1c0,71.8,55.1,158.1,78.8,191.9c18.1,25.8,80,108.9,126.8,111.8
		c0.8,0.1,1.7,0.1,2.5,0.1s1.7-0.1,2.5-0.1c46.8-2.9,108.7-86,126.8-111.8c23.7-33.8,78.8-120.1,78.8-191.9
		C464.1,93.4,370.8,0,256,0z M348.7,370.3c-44.3,63.9-82,93-92.7,94.7c-10.7-1.7-48.4-30.7-92.7-94.7
		c-42.2-60.9-68.4-123-68.4-162.2C94.8,119.3,167.1,47,256,47c88.9,0,161.2,72.3,161.2,161.2C417.2,247.3,390.9,309.5,348.7,370.3z"
		/>
	<path class="st0" d="M256,102.3c-13,0-23.5,10.5-23.5,23.5s10.5,23.5,23.5,23.5c32.4,0,58.7,26.3,58.7,58.7
		c0,32.4-26.3,58.7-58.7,58.7c-32.4,0-58.7-26.3-58.7-58.7c0-13-10.5-23.5-23.5-23.5c-13,0-23.5,10.5-23.5,23.5
		c0,58.2,47.4,105.6,105.6,105.6s105.6-47.4,105.6-105.6C361.6,149.7,314.2,102.3,256,102.3z"/>
</g>
</svg>
