<?xml version="1.0" encoding="utf-8"?>
<!-- Generator: Adobe Illustrator 19.2.1, SVG Export Plug-In . SVG Version: 6.00 Build 0)  -->
<svg version="1.1" id="Capa_1" xmlns="http://www.w3.org/2000/svg" xmlns:xlink="http://www.w3.org/1999/xlink" x="0px" y="0px"
	 viewBox="0 0 512 512" style="enable-background:new 0 0 512 512;" xml:space="preserve">
<style type="text/css">
	.st0{fill:#FFFFFF;}
</style>
<g>
	<path class="st0" d="M65.7,0h380.6C482.4,0,512,26.8,512,65.7v380.6c0,39-29.6,65.7-65.7,65.7H65.7C29.6,512,0,485.2,0,446.3V65.7
		C0,26.8,29.6,0,65.7,0L65.7,0z M373,56.9c-12.7,0-23,10.4-23,23.1v55.2c0,12.7,10.4,23.1,23,23.1h57.9c12.7,0,23.1-10.4,23.1-23.1
		V79.9c0-12.7-10.4-23.1-23.1-23.1H373L373,56.9z M454.1,216.5h-45.1c4.3,13.9,6.6,28.7,6.6,43.9c0,85.2-71.3,154.2-159.2,154.2
		c-87.9,0-159.1-69-159.1-154.2c0-15.3,2.3-30,6.6-43.9h-47v216.3c0,11.2,9.2,20.4,20.4,20.4h356.5c11.2,0,20.4-9.2,20.4-20.4
		L454.1,216.5L454.1,216.5z M256.5,155.3c-56.8,0-102.8,44.6-102.8,99.6s46,99.6,102.8,99.6c56.8,0,102.8-44.6,102.8-99.6
		S313.3,155.3,256.5,155.3z"/>
</g>
</svg>
